<mxfile host="Electron" agent="Mozilla/5.0 (Windows NT 10.0; Win64; x64) AppleWebKit/537.36 (KHTML, like Gecko) draw.io/24.7.17 Chrome/128.0.6613.36 Electron/32.0.1 Safari/537.36" version="24.7.17">
  <diagram name="Page-1" id="RK-nZpWAkYRXY2A4QY6i">
    <mxGraphModel dx="1840" dy="1071" grid="1" gridSize="10" guides="1" tooltips="1" connect="1" arrows="1" fold="1" page="1" pageScale="1" pageWidth="850" pageHeight="1100" math="0" shadow="0">
      <root>
        <mxCell id="0" />
        <mxCell id="1" parent="0" />
        <mxCell id="m9pXmTO8H7_1p9pcug5T-1" value="Sales Processing Activity Diagram for Available Jewellery" style="swimlane;childLayout=stackLayout;resizeParent=1;resizeParentMax=0;startSize=20;html=1;" parent="1" vertex="1">
          <mxGeometry x="140.00000000000045" y="60" width="860" height="1340" as="geometry" />
        </mxCell>
        <mxCell id="m9pXmTO8H7_1p9pcug5T-2" value="Sales Associate" style="swimlane;startSize=20;html=1;" parent="m9pXmTO8H7_1p9pcug5T-1" vertex="1">
          <mxGeometry y="20" width="310" height="1320" as="geometry" />
        </mxCell>
        <mxCell id="m9pXmTO8H7_1p9pcug5T-5" value="" style="strokeWidth=2;html=1;shape=mxgraph.flowchart.start_2;whiteSpace=wrap;fillColor=#000000;" parent="m9pXmTO8H7_1p9pcug5T-2" vertex="1">
          <mxGeometry x="134.99999999999955" y="40" width="30" height="30" as="geometry" />
        </mxCell>
        <mxCell id="m9pXmTO8H7_1p9pcug5T-9" value="request item details" style="rounded=1;whiteSpace=wrap;html=1;" parent="m9pXmTO8H7_1p9pcug5T-2" vertex="1">
          <mxGeometry x="90" y="120" width="120" height="50" as="geometry" />
        </mxCell>
        <mxCell id="m9pXmTO8H7_1p9pcug5T-10" value="" style="endArrow=classic;html=1;rounded=0;exitX=0.5;exitY=1;exitDx=0;exitDy=0;exitPerimeter=0;" parent="m9pXmTO8H7_1p9pcug5T-2" source="m9pXmTO8H7_1p9pcug5T-5" target="m9pXmTO8H7_1p9pcug5T-9" edge="1">
          <mxGeometry width="50" height="50" relative="1" as="geometry">
            <mxPoint x="249.99999999999955" y="250" as="sourcePoint" />
            <mxPoint x="299.99999999999955" y="200" as="targetPoint" />
          </mxGeometry>
        </mxCell>
        <mxCell id="m9pXmTO8H7_1p9pcug5T-12" value="Is the item in stock?" style="rhombus;whiteSpace=wrap;html=1;" parent="m9pXmTO8H7_1p9pcug5T-2" vertex="1">
          <mxGeometry x="105" y="240" width="90" height="80" as="geometry" />
        </mxCell>
        <mxCell id="m9pXmTO8H7_1p9pcug5T-29" value="yes" style="text;html=1;align=center;verticalAlign=middle;whiteSpace=wrap;rounded=0;" parent="m9pXmTO8H7_1p9pcug5T-2" vertex="1">
          <mxGeometry x="219.99999999999955" y="250" width="60" height="30" as="geometry" />
        </mxCell>
        <mxCell id="m9pXmTO8H7_1p9pcug5T-30" value="No" style="text;html=1;align=center;verticalAlign=middle;whiteSpace=wrap;rounded=0;" parent="m9pXmTO8H7_1p9pcug5T-2" vertex="1">
          <mxGeometry x="39.999999999999545" y="250" width="60" height="30" as="geometry" />
        </mxCell>
        <mxCell id="m9pXmTO8H7_1p9pcug5T-3" value="Cashier" style="swimlane;startSize=20;html=1;" parent="m9pXmTO8H7_1p9pcug5T-1" vertex="1">
          <mxGeometry x="310" y="20" width="300" height="1320" as="geometry" />
        </mxCell>
        <mxCell id="m9pXmTO8H7_1p9pcug5T-13" value="Apply discounts" style="rounded=1;whiteSpace=wrap;html=1;" parent="m9pXmTO8H7_1p9pcug5T-3" vertex="1">
          <mxGeometry x="95" y="260" width="110" height="50" as="geometry" />
        </mxCell>
        <mxCell id="m9pXmTO8H7_1p9pcug5T-15" value="&lt;font style=&quot;font-size: 10px;&quot;&gt;record the&amp;nbsp;&lt;/font&gt;&lt;div&gt;&lt;font style=&quot;font-size: 10px;&quot;&gt;payment method&lt;/font&gt;&lt;/div&gt;" style="rhombus;whiteSpace=wrap;html=1;" parent="m9pXmTO8H7_1p9pcug5T-3" vertex="1">
          <mxGeometry x="100" y="350" width="100" height="80" as="geometry" />
        </mxCell>
        <mxCell id="m9pXmTO8H7_1p9pcug5T-16" value="card" style="rounded=1;whiteSpace=wrap;html=1;" parent="m9pXmTO8H7_1p9pcug5T-3" vertex="1">
          <mxGeometry x="9.999999999999545" y="480" width="70" height="40" as="geometry" />
        </mxCell>
        <mxCell id="m9pXmTO8H7_1p9pcug5T-17" value="Cash" style="rounded=1;whiteSpace=wrap;html=1;" parent="m9pXmTO8H7_1p9pcug5T-3" vertex="1">
          <mxGeometry x="219.99999999999955" y="480" width="70" height="40" as="geometry" />
        </mxCell>
        <mxCell id="m9pXmTO8H7_1p9pcug5T-18" value="" style="line;strokeWidth=6;rotatable=0;dashed=0;labelPosition=right;align=left;verticalAlign=middle;spacingTop=0;spacingLeft=6;points=[];portConstraint=eastwest;spacing=3;" parent="m9pXmTO8H7_1p9pcug5T-3" vertex="1">
          <mxGeometry x="30" y="600" width="250" height="10" as="geometry" />
        </mxCell>
        <mxCell id="m9pXmTO8H7_1p9pcug5T-20" value="Proceed payment" style="rounded=1;whiteSpace=wrap;html=1;" parent="m9pXmTO8H7_1p9pcug5T-3" vertex="1">
          <mxGeometry x="95" y="670" width="120" height="50" as="geometry" />
        </mxCell>
        <mxCell id="m9pXmTO8H7_1p9pcug5T-21" value="Complete the payment" style="rounded=1;whiteSpace=wrap;html=1;" parent="m9pXmTO8H7_1p9pcug5T-3" vertex="1">
          <mxGeometry x="94.99999999999955" y="800" width="120" height="60" as="geometry" />
        </mxCell>
        <mxCell id="m9pXmTO8H7_1p9pcug5T-31" value="" style="endArrow=classic;html=1;rounded=0;exitX=0.5;exitY=1;exitDx=0;exitDy=0;" parent="m9pXmTO8H7_1p9pcug5T-3" source="m9pXmTO8H7_1p9pcug5T-13" target="m9pXmTO8H7_1p9pcug5T-15" edge="1">
          <mxGeometry width="50" height="50" relative="1" as="geometry">
            <mxPoint x="109.99999999999955" y="380" as="sourcePoint" />
            <mxPoint x="209.99999999999955" y="350" as="targetPoint" />
          </mxGeometry>
        </mxCell>
        <mxCell id="m9pXmTO8H7_1p9pcug5T-32" value="" style="endArrow=classic;html=1;rounded=0;exitX=0;exitY=0.5;exitDx=0;exitDy=0;entryX=0.5;entryY=0;entryDx=0;entryDy=0;" parent="m9pXmTO8H7_1p9pcug5T-3" source="m9pXmTO8H7_1p9pcug5T-15" target="m9pXmTO8H7_1p9pcug5T-16" edge="1">
          <mxGeometry width="50" height="50" relative="1" as="geometry">
            <mxPoint x="109.99999999999955" y="480" as="sourcePoint" />
            <mxPoint x="159.99999999999955" y="430" as="targetPoint" />
            <Array as="points">
              <mxPoint x="44.999999999999545" y="390" />
            </Array>
          </mxGeometry>
        </mxCell>
        <mxCell id="m9pXmTO8H7_1p9pcug5T-33" value="card" style="text;html=1;align=center;verticalAlign=middle;whiteSpace=wrap;rounded=0;" parent="m9pXmTO8H7_1p9pcug5T-3" vertex="1">
          <mxGeometry x="34.999999999999545" y="360" width="60" height="30" as="geometry" />
        </mxCell>
        <mxCell id="m9pXmTO8H7_1p9pcug5T-34" value="" style="endArrow=classic;html=1;rounded=0;exitX=1;exitY=0.5;exitDx=0;exitDy=0;entryX=0.5;entryY=0;entryDx=0;entryDy=0;" parent="m9pXmTO8H7_1p9pcug5T-3" source="m9pXmTO8H7_1p9pcug5T-15" target="m9pXmTO8H7_1p9pcug5T-17" edge="1">
          <mxGeometry width="50" height="50" relative="1" as="geometry">
            <mxPoint x="79.99999999999955" y="400" as="sourcePoint" />
            <mxPoint x="129.99999999999955" y="350" as="targetPoint" />
            <Array as="points">
              <mxPoint x="254.99999999999955" y="390" />
            </Array>
          </mxGeometry>
        </mxCell>
        <mxCell id="m9pXmTO8H7_1p9pcug5T-35" value="cash" style="text;html=1;align=center;verticalAlign=middle;whiteSpace=wrap;rounded=0;" parent="m9pXmTO8H7_1p9pcug5T-3" vertex="1">
          <mxGeometry x="199.99999999999955" y="360" width="60" height="30" as="geometry" />
        </mxCell>
        <mxCell id="m9pXmTO8H7_1p9pcug5T-36" value="" style="endArrow=classic;html=1;rounded=0;exitX=0.639;exitY=1.058;exitDx=0;exitDy=0;exitPerimeter=0;entryX=0.099;entryY=0.462;entryDx=0;entryDy=0;entryPerimeter=0;" parent="m9pXmTO8H7_1p9pcug5T-3" source="m9pXmTO8H7_1p9pcug5T-16" target="m9pXmTO8H7_1p9pcug5T-18" edge="1">
          <mxGeometry width="50" height="50" relative="1" as="geometry">
            <mxPoint x="79.99999999999955" y="510" as="sourcePoint" />
            <mxPoint x="129.99999999999955" y="460" as="targetPoint" />
          </mxGeometry>
        </mxCell>
        <mxCell id="m9pXmTO8H7_1p9pcug5T-37" value="" style="endArrow=classic;html=1;rounded=0;entryX=0.837;entryY=0.767;entryDx=0;entryDy=0;entryPerimeter=0;" parent="m9pXmTO8H7_1p9pcug5T-3" target="m9pXmTO8H7_1p9pcug5T-18" edge="1">
          <mxGeometry width="50" height="50" relative="1" as="geometry">
            <mxPoint x="239.99999999999955" y="520" as="sourcePoint" />
            <mxPoint x="129.99999999999955" y="460" as="targetPoint" />
          </mxGeometry>
        </mxCell>
        <mxCell id="m9pXmTO8H7_1p9pcug5T-38" value="" style="endArrow=classic;html=1;rounded=0;exitX=0.483;exitY=0.78;exitDx=0;exitDy=0;exitPerimeter=0;entryX=0.453;entryY=0.087;entryDx=0;entryDy=0;entryPerimeter=0;" parent="m9pXmTO8H7_1p9pcug5T-3" source="m9pXmTO8H7_1p9pcug5T-18" target="m9pXmTO8H7_1p9pcug5T-20" edge="1">
          <mxGeometry width="50" height="50" relative="1" as="geometry">
            <mxPoint x="109.99999999999955" y="570" as="sourcePoint" />
            <mxPoint x="159.99999999999955" y="520" as="targetPoint" />
          </mxGeometry>
        </mxCell>
        <mxCell id="m9pXmTO8H7_1p9pcug5T-39" value="" style="endArrow=classic;html=1;rounded=0;exitX=0.5;exitY=1;exitDx=0;exitDy=0;entryX=0.5;entryY=0;entryDx=0;entryDy=0;" parent="m9pXmTO8H7_1p9pcug5T-3" source="m9pXmTO8H7_1p9pcug5T-20" target="m9pXmTO8H7_1p9pcug5T-21" edge="1">
          <mxGeometry width="50" height="50" relative="1" as="geometry">
            <mxPoint x="109.99999999999955" y="780" as="sourcePoint" />
            <mxPoint x="159.99999999999955" y="730" as="targetPoint" />
          </mxGeometry>
        </mxCell>
        <mxCell id="m9pXmTO8H7_1p9pcug5T-25" value="" style="endArrow=classic;html=1;rounded=0;exitX=1;exitY=0.5;exitDx=0;exitDy=0;entryX=0;entryY=0.5;entryDx=0;entryDy=0;" parent="m9pXmTO8H7_1p9pcug5T-1" source="m9pXmTO8H7_1p9pcug5T-9" target="m9pXmTO8H7_1p9pcug5T-11" edge="1">
          <mxGeometry width="50" height="50" relative="1" as="geometry">
            <mxPoint x="379.99999999999955" y="570" as="sourcePoint" />
            <mxPoint x="429.99999999999955" y="520" as="targetPoint" />
          </mxGeometry>
        </mxCell>
        <mxCell id="m9pXmTO8H7_1p9pcug5T-26" value="" style="endArrow=classic;html=1;rounded=0;exitX=0.335;exitY=1.039;exitDx=0;exitDy=0;exitPerimeter=0;entryX=0.5;entryY=0;entryDx=0;entryDy=0;" parent="m9pXmTO8H7_1p9pcug5T-1" source="m9pXmTO8H7_1p9pcug5T-11" target="m9pXmTO8H7_1p9pcug5T-12" edge="1">
          <mxGeometry width="50" height="50" relative="1" as="geometry">
            <mxPoint x="329.99999999999955" y="310" as="sourcePoint" />
            <mxPoint x="379.99999999999955" y="260" as="targetPoint" />
            <Array as="points">
              <mxPoint x="709.9999999999995" y="220" />
              <mxPoint x="149.99999999999955" y="220" />
            </Array>
          </mxGeometry>
        </mxCell>
        <mxCell id="m9pXmTO8H7_1p9pcug5T-27" value="" style="endArrow=classic;html=1;rounded=0;exitX=1;exitY=0.5;exitDx=0;exitDy=0;entryX=0.023;entryY=0.39;entryDx=0;entryDy=0;entryPerimeter=0;" parent="m9pXmTO8H7_1p9pcug5T-1" source="m9pXmTO8H7_1p9pcug5T-12" target="m9pXmTO8H7_1p9pcug5T-13" edge="1">
          <mxGeometry width="50" height="50" relative="1" as="geometry">
            <mxPoint x="329.99999999999955" y="370" as="sourcePoint" />
            <mxPoint x="379.99999999999955" y="320" as="targetPoint" />
          </mxGeometry>
        </mxCell>
        <mxCell id="m9pXmTO8H7_1p9pcug5T-40" value="" style="endArrow=classic;html=1;rounded=0;exitX=0.986;exitY=0.37;exitDx=0;exitDy=0;exitPerimeter=0;entryX=-0.023;entryY=0.402;entryDx=0;entryDy=0;entryPerimeter=0;" parent="m9pXmTO8H7_1p9pcug5T-1" source="m9pXmTO8H7_1p9pcug5T-21" target="m9pXmTO8H7_1p9pcug5T-22" edge="1">
          <mxGeometry width="50" height="50" relative="1" as="geometry">
            <mxPoint x="529.9999999999995" y="820" as="sourcePoint" />
            <mxPoint x="579.9999999999995" y="770" as="targetPoint" />
          </mxGeometry>
        </mxCell>
        <mxCell id="m9pXmTO8H7_1p9pcug5T-4" value="System" style="swimlane;startSize=20;html=1;" parent="m9pXmTO8H7_1p9pcug5T-1" vertex="1">
          <mxGeometry x="610" y="20" width="250" height="1320" as="geometry" />
        </mxCell>
        <mxCell id="m9pXmTO8H7_1p9pcug5T-11" value="collect data" style="rounded=1;whiteSpace=wrap;html=1;" parent="m9pXmTO8H7_1p9pcug5T-4" vertex="1">
          <mxGeometry x="60" y="120" width="120" height="50" as="geometry" />
        </mxCell>
        <mxCell id="m9pXmTO8H7_1p9pcug5T-22" value="Update inventory" style="rounded=1;whiteSpace=wrap;html=1;" parent="m9pXmTO8H7_1p9pcug5T-4" vertex="1">
          <mxGeometry x="79.99999999999955" y="800" width="120" height="60" as="geometry" />
        </mxCell>
        <mxCell id="m9pXmTO8H7_1p9pcug5T-23" value="generate invoice" style="rounded=1;whiteSpace=wrap;html=1;" parent="m9pXmTO8H7_1p9pcug5T-4" vertex="1">
          <mxGeometry x="79.99999999999955" y="920" width="120" height="60" as="geometry" />
        </mxCell>
        <mxCell id="m9pXmTO8H7_1p9pcug5T-6" value="" style="ellipse;html=1;shape=endState;fillColor=#000000;strokeColor=#000000;" parent="m9pXmTO8H7_1p9pcug5T-4" vertex="1">
          <mxGeometry x="125" y="1250" width="30" height="30" as="geometry" />
        </mxCell>
        <mxCell id="m9pXmTO8H7_1p9pcug5T-41" value="" style="endArrow=classic;html=1;rounded=0;exitX=0.5;exitY=1;exitDx=0;exitDy=0;entryX=0.5;entryY=0;entryDx=0;entryDy=0;" parent="m9pXmTO8H7_1p9pcug5T-4" source="m9pXmTO8H7_1p9pcug5T-22" target="m9pXmTO8H7_1p9pcug5T-23" edge="1">
          <mxGeometry width="50" height="50" relative="1" as="geometry">
            <mxPoint x="-60.000000000000455" y="940" as="sourcePoint" />
            <mxPoint x="-10.000000000000455" y="890" as="targetPoint" />
          </mxGeometry>
        </mxCell>
        <mxCell id="m9pXmTO8H7_1p9pcug5T-42" value="" style="endArrow=classic;html=1;rounded=0;entryX=0.5;entryY=0;entryDx=0;entryDy=0;exitX=0.5;exitY=1;exitDx=0;exitDy=0;" parent="m9pXmTO8H7_1p9pcug5T-4" source="o2QX0vuxXX4c7a59h1yY-1" target="m9pXmTO8H7_1p9pcug5T-6" edge="1">
          <mxGeometry width="50" height="50" relative="1" as="geometry">
            <mxPoint x="69.99999999999955" y="1080" as="sourcePoint" />
            <mxPoint x="-10.000000000000455" y="980" as="targetPoint" />
          </mxGeometry>
        </mxCell>
        <mxCell id="o2QX0vuxXX4c7a59h1yY-1" value="display recent sales" style="rounded=1;whiteSpace=wrap;html=1;" vertex="1" parent="m9pXmTO8H7_1p9pcug5T-4">
          <mxGeometry x="79.99999999999955" y="1060" width="120" height="60" as="geometry" />
        </mxCell>
        <mxCell id="o2QX0vuxXX4c7a59h1yY-2" value="" style="endArrow=classic;html=1;rounded=0;entryX=0.5;entryY=0;entryDx=0;entryDy=0;exitX=0.5;exitY=1;exitDx=0;exitDy=0;" edge="1" parent="m9pXmTO8H7_1p9pcug5T-4" source="m9pXmTO8H7_1p9pcug5T-23" target="o2QX0vuxXX4c7a59h1yY-1">
          <mxGeometry width="50" height="50" relative="1" as="geometry">
            <mxPoint x="139.51999999999998" y="1040" as="sourcePoint" />
            <mxPoint x="139.51999999999998" y="1170" as="targetPoint" />
          </mxGeometry>
        </mxCell>
        <mxCell id="m9pXmTO8H7_1p9pcug5T-7" value="Customer Enter to the shop" style="shape=note;whiteSpace=wrap;html=1;backgroundOutline=1;darkOpacity=0.05;" parent="1" vertex="1">
          <mxGeometry x="20" y="80" width="80" height="100" as="geometry" />
        </mxCell>
        <mxCell id="m9pXmTO8H7_1p9pcug5T-8" value="" style="endArrow=none;dashed=1;html=1;rounded=0;exitX=1.004;exitY=0.497;exitDx=0;exitDy=0;exitPerimeter=0;entryX=-0.005;entryY=0.358;entryDx=0;entryDy=0;entryPerimeter=0;" parent="1" source="m9pXmTO8H7_1p9pcug5T-7" target="m9pXmTO8H7_1p9pcug5T-5" edge="1">
          <mxGeometry width="50" height="50" relative="1" as="geometry">
            <mxPoint x="390" y="300" as="sourcePoint" />
            <mxPoint x="440" y="250" as="targetPoint" />
          </mxGeometry>
        </mxCell>
        <mxCell id="m9pXmTO8H7_1p9pcug5T-28" value="" style="endArrow=classic;html=1;rounded=0;exitX=0;exitY=0.5;exitDx=0;exitDy=0;" parent="1" source="m9pXmTO8H7_1p9pcug5T-12" edge="1">
          <mxGeometry width="50" height="50" relative="1" as="geometry">
            <mxPoint x="440" y="380" as="sourcePoint" />
            <mxPoint x="290" y="170" as="targetPoint" />
            <Array as="points">
              <mxPoint x="170" y="360" />
              <mxPoint x="170" y="170" />
            </Array>
          </mxGeometry>
        </mxCell>
      </root>
    </mxGraphModel>
  </diagram>
</mxfile>
